<svg xmlns="http://www.w3.org/2000/svg" width="256" height="256" viewBox="0 0 100 100"><rect width="100" height="100" rx="20" fill="#b7b6c0"></rect><path d="M28.44 57.56L22.82 57.56L22.82 72.03Q22.17 72.18 20.98 72.39Q19.80 72.61 18.43 72.61L18.43 72.61Q15.69 72.61 14.58 71.60Q13.46 70.59 13.46 68.22L13.46 68.22L13.46 32.07Q13.46 30.70 14.18 29.98Q14.90 29.26 16.20 28.83L16.20 28.83Q17.35 28.47 18.75 28.18Q20.16 27.90 21.67 27.72Q23.18 27.54 24.69 27.46Q26.20 27.39 27.57 27.39L27.57 27.39Q37.08 27.39 41.86 31.46Q46.65 35.53 46.65 42.44L46.65 42.44Q46.65 49.35 41.97 53.46Q37.29 57.56 28.44 57.56L28.44 57.56ZM22.75 50.07L27.86 50.07Q32.18 50.07 34.66 48.20Q37.15 46.33 37.15 42.44L37.15 42.44Q37.15 38.70 34.81 36.82Q32.47 34.95 28.00 34.95L28.00 34.95Q24.91 34.95 22.75 35.38L22.75 35.38L22.75 50.07ZM85.53 28.40L85.53 28.40Q85.89 28.98 86.22 29.95Q86.54 30.92 86.54 32.07L86.54 32.07Q86.54 34.02 85.64 35.02Q84.74 36.03 83.16 36.03L83.16 36.03L73.22 36.03L73.22 72.03Q72.64 72.18 71.42 72.39Q70.20 72.61 68.90 72.61L68.90 72.61Q66.16 72.61 65.01 71.60Q63.86 70.59 63.86 68.22L63.86 68.22L63.86 36.03L51.76 36.03Q51.40 35.38 51.08 34.45Q50.76 33.51 50.76 32.36L50.76 32.36Q50.76 30.34 51.66 29.37Q52.56 28.40 54.14 28.40L54.14 28.40L85.53 28.40Z" fill="#fff"></path></svg>